#!OML:ASF F:\VICON\USERDATA\INSTALL\rory3\rory3.ASF
:FULLY-SPECIFIED
:DEGREES
1224
root 9.71506 16.4115 -3.00784 3.05707 -62.5534 0.981439
lowerback 7.07154 -2.1737 -7.30572
upperback -0.544016 -3.45247 1.64017
thorax -4.00836 -1.53962 6.17614
lowerneck -21.0046 -0.868726 -10.2655
upperneck 22.9637 -0.857266 10.8776
head 10.9682 0.0142081 5.60449
rclavicle 6.10269e-014 9.64106e-015
rhumerus -12.9689 5.52704 -78.1442
rradius 137.548
rwrist 1.36575
rhand -20.724 25.7714
rfingers 7.12502
rthumb 5.64087 -4.13349
lclavicle 6.10269e-014 9.64106e-015
lhumerus 4.46043 -7.15094 88.3319
lradius 123.774
lwrist -11.8456
lhand -12.601 6.99563
lfingers 7.12502
lthumb 13.4778 36.5395
rfemur -29.74 -12.9149 12.7146
rtibia 63.4012
rfoot -24.1277 4.18906
rtoes -13.0309
lfemur 2.96068 4.58772 -9.97882
ltibia 34.1753
lfoot -26.3316 23.6297
ltoes -28.2183
1225
root 9.64247 16.3945 -3.01479 3.59579 -63.427 0.381071
lowerback 6.94668 -2.26283 -6.82077
upperback -0.479084 -3.5124 1.82962
thorax -3.87569 -1.58651 6.09686
lowerneck -21.3081 -0.8465 -10.5272
upperneck 22.9901 -0.732921 10.9811
head 11.0212 0.0672309 5.71558
rclavicle -3.6918e-014 -1.15792e-014
rhumerus -12.9962 5.98057 -78.4204
rradius 137.39
rwrist 1.83182
rhand -20.5568 25.9435
rfingers 7.12502
rthumb 5.80224 -3.95708
lclavicle -3.6918e-014 -1.15792e-014
lhumerus 4.12319 -6.11982 88.7864
lradius 124.033
lwrist -11.6841
lhand -12.2937 6.78159
lfingers 7.12502
lthumb 13.7739 36.3056
rfemur -29.1804 -12.4411 13.1247
rtibia 62.7286
rfoot -25.1377 4.84697
rtoes -11.8777
lfemur 2.78701 4.71525 -9.71338
ltibia 35.508
lfoot -25.9121 24.1512
ltoes -28.64
1226
root 9.57363 16.379 -3.0218 4.10046 -64.3139 -0.257517
lowerback 6.98999 -2.30809 -6.30592
upperback -0.399118 -3.52572 1.98014
thorax -3.83408 -1.6071 5.96477
lowerneck -21.5894 -0.751289 -10.5596
upperneck 22.9885 -0.560256 10.9992
head 11.052 0.152286 5.75964
rclavicle 2.95195e-014 -3.8266e-015
rhumerus -13.0605 6.34837 -78.7109
rradius 137.238
rwrist 2.17858
rhand -20.4679 26.0594
rfingers 7.12502
rthumb 5.8881 -3.8388
lclavicle 2.95195e-014 -3.8266e-015
lhumerus 3.88413 -5.02451 89.2779
lradius 124.407
lwrist -11.56
lhand -11.5857 6.59865
lfingers 7.12502
lthumb 14.4562 36.0751
rfemur -28.7052 -11.8772 13.5434
rtibia 62.0496
rfoot -25.9297 5.14215
rtoes -11.3593
lfemur 2.48015 5.02336 -9.38964
ltibia 37.2182
lfoot -25.2346 24.54
ltoes -29.0632
1227
root 9.50381 16.3692 -3.02702 4.568 -65.2093 -0.856839
lowerback 6.99904 -2.30092 -5.76334
upperback -0.248086 -3.46725 2.04481
thorax -3.71633 -1.59767 5.71538
lowerneck -21.7706 -0.615709 -10.2173
upperneck 22.749 -0.407245 10.8443
head 10.9779 0.242889 5.65569
rclavicle -4.15646e-014 1.69961e-014
rhumerus -13.0454 6.47119 -79.0524
rradius 137.06
rwrist 2.58432
rhand -20.6263 26.205
rfingers 7.12502
rthumb 5.73517 -3.69736
lclavicle -4.15646e-014 1.69961e-014
lhumerus 3.81196 -4.17484 89.4974
lradius 124.626
lwrist -11.595
lhand -10.9851 6.34968
lfingers 7.12502
lthumb 15.0348 35.7838
rfemur -28.3478 -11.5281 14.0305
rtibia 61.3654
rfoot -26.4335 4.63967
rtoes -14.3908
lfemur 1.9849 5.55511 -9.02942
ltibia 39.2629
lfoot -24.2662 24.6938
ltoes -29.4655
1228
root 9.43852 16.3671 -3.02709 5.06263 -66.1897 -1.50006
lowerback 7.05461 -2.24651 -5.11026
upperback -0.0417019 -3.34102 2.07554
thorax -3.58361 -1.55758 5.36273
lowerneck -22.1012 -0.494609 -9.82048
upperneck 22.5793 -0.283263 10.6788
head 10.963 0.325395 5.54176
rclavicle 1.59028e-014 -9.74045e-015
rhumerus -12.9303 6.5362 -79.3852
rradius 136.904
rwrist 2.87906
rhand -20.7945 26.3285
rfingers 7.12502
rthumb 5.57274 -3.57821
lclavicle 1.59028e-014 -9.74045e-015
lhumerus 3.79251 -3.49706 89.5078
lradius 124.762
lwrist -11.6042
lhand -10.8425 6.05441
lfingers 7.12502
lthumb 15.1722 35.4782
rfemur -27.9226 -11.1879 14.4735
rtibia 60.6809
rfoot -26.7743 4.47416
rtoes -16.5708
lfemur 1.33477 6.21052 -8.67058
ltibia 41.5854
lfoot -23.31 24.4703
ltoes -29.1595
1229
root 9.37852 16.3694 -3.02385 5.80004 -67.2137 -2.35156
lowerback 7.15486 -2.16056 -4.31396
upperback 0.115246 -3.16399 2.11445
thorax -3.53869 -1.4889 4.93768
lowerneck -22.3978 -0.390942 -9.52525
upperneck 22.4801 -0.182816 10.5964
head 10.9708 0.395704 5.4766
rclavicle -6.43565e-015 1.82882e-014
rhumerus -12.8345 6.56287 -79.7045
rradius 136.808
rwrist 2.69089
rhand -20.7098 26.186
rfingers 7.12502
rthumb 5.65454 -3.71852
lclavicle -6.43565e-015 1.82882e-014
lhumerus 3.69513 -2.92123 89.5358
lradius 124.933
lwrist -11.559
lhand -10.8887 6.00318
lfingers 7.12502
lthumb 15.1277 35.4303
rfemur -27.3817 -10.5017 14.7861
rtibia 59.9911
rfoot -27.1945 5.81176
rtoes -11.6534
lfemur 0.490948 6.90922 -8.25922
ltibia 44.1245
lfoot -22.2832 24.033
ltoes -28.2649
1230
root 9.32281 16.3685 -3.01988 6.90285 -68.1088 -3.62706
lowerback 7.44221 -2.13817 -3.44684
upperback 0.17439 -3.06773 2.26264
thorax -3.6859 -1.4529 4.60752
lowerneck -22.4294 -0.256931 -9.34346
upperneck 22.2691 -0.0160267 10.509
head 10.8789 0.481417 5.42719
rclavicle -4.47266e-015 -7.7526e-015
rhumerus -12.8164 6.71983 -79.924
rradius 136.742
rwrist 2.13737
rhand -20.4109 26.0071
rfingers 7.12502
rthumb 5.94315 -3.88959
lclavicle -4.47266e-015 -7.7526e-015
lhumerus 3.38711 -2.12825 89.6644
lradius 125.081
lwrist -11.5206
lhand -10.763 5.99143
lfingers 7.12502
lthumb 15.2488 35.4094
rfemur -26.7594 -9.85034 15.2494
rtibia 59.2291
rfoot -27.6646 6.82908
rtoes -7.12507
lfemur -0.460058 7.49055 -7.67525
ltibia 46.7989
lfoot -21.0176 23.4739
ltoes -26.5531
1231
root 9.26148 16.3744 -3.01368 8.96988 -68.935 -5.9392
lowerback 7.79191 -2.14561 -2.35049
upperback 0.191584 -2.98275 2.54821
thorax -3.9129 -1.42493 4.29698
lowerneck -22.4177 -0.101081 -9.1467
upperneck 22.124 0.172488 10.3995
head 10.8013 0.573274 5.37218
rclavicle 5.86166e-014 -5.36719e-015
rhumerus -12.9085 6.90545 -80.1866
rradius 136.637
rwrist 1.82305
rhand -19.9837 26.1047
rfingers 7.12502
rthumb 6.35551 -3.77999
lclavicle 5.86166e-014 -5.36719e-015
lhumerus 2.95088 -1.28247 89.6286
lradius 125.132
lwrist -11.3498
lhand -10.764 5.94
lfingers 7.12502
lthumb 15.2478 35.358
rfemur -26.2659 -9.39777 16.3083
rtibia 58.4343
rfoot -28.1653 5.86699
rtoes -10.7444
lfemur -1.44713 8.15755 -6.64432
ltibia 49.4526
lfoot -19.4105 22.6871
ltoes -24.3169
1232
root 9.19429 16.3889 -3.00258 11.5986 -69.833 -8.70246
lowerback 7.80968 -2.10399 -1.13248
upperback 0.301116 -2.81798 2.74959
thorax -3.8718 -1.3685 3.80053
lowerneck -22.4733 0.0295814 -8.80344
upperneck 21.9748 0.255819 10.3705
head 10.7486 0.640506 5.30874
rclavicle 1.68222e-014 -1.19271e-015
rhumerus -12.8579 6.80549 -80.5874
rradius 136.463
rwrist 1.70769
rhand -19.5901 26.2647
rfingers 7.12502
rthumb 6.73557 -3.60813
lclavicle 1.68222e-014 -1.19271e-015
lhumerus 2.68397 -0.683761 89.1703
lradius 125.106
lwrist -10.9658
lhand -10.9385 6.02178
lfingers 7.12502
lthumb 15.0797 35.4525
rfemur -25.9495 -8.80017 17.462
rtibia 57.7114
rfoot -28.3959 4.7647
rtoes -15.2141
lfemur -2.51727 9.09204 -5.49199
ltibia 51.9921
lfoot -17.5565 21.634
ltoes -22.021
1233
root 9.13181 16.41 -2.98691 11.9589 -70.9177 -8.89277
lowerback 7.7163 -1.97805 -0.819115
upperback 0.346148 -2.62678 2.67033
thorax -3.80411 -1.28115 3.51524
lowerneck -22.5232 0.109073 -8.51933
upperneck 21.9154 0.253429 10.4384
head 10.7376 0.67321 5.28355
rclavicle -2.27857e-014 7.95139e-016
rhumerus -12.8099 6.70141 -80.8605
rradius 136.318
rwrist 1.33873
rhand -19.4981 26.2146
rfingers 7.12502
rthumb 6.8243 -3.65541
lclavicle -2.27857e-014 7.95139e-016
lhumerus 2.40996 -0.175765 88.8082
lradius 125.026
lwrist -10.5785
lhand -11.0064 6.10442
lfingers 7.12502
lthumb 15.0143 35.5401
rfemur -25.7411 -8.01633 17.2784
rtibia 57.1607
rfoot -28.0671 5.89509
rtoes -12.3995
lfemur -3.70397 10.0133 -5.53679
ltibia 54.329
lfoot -15.6801 20.4666
ltoes -19.4894
